<?xml version="1.0" encoding="utf-8"?>
<!-- Generator: Adobe Illustrator 24.0.1, SVG Export Plug-In . SVG Version: 6.00 Build 0)  -->
<svg version="1.1" id="Camada_1" xmlns="http://www.w3.org/2000/svg" xmlns:xlink="http://www.w3.org/1999/xlink" x="0px" y="0px"
	 viewBox="0 0 1000 280.09" style="enable-background:new 0 0 1000 280.09;" xml:space="preserve">
<style type="text/css">
	.st0{fill:#C7653B;}
	.st1{display:none;}
	.st2{display:inline;fill:#FFFFFF;}
	.st3{display:inline;}
	.st4{fill:#FFFFFF;}
	.st5{display:inline;fill-rule:evenodd;clip-rule:evenodd;fill:#FFFFFF;}
</style>
<path class="st0" d="M42.31,24.09v73.5c11.22-5.94,22.06-12,32.54-18.19c10.47-6.19,20.91-12.25,31.31-18.19
	c11.55,6.27,23.05,12.58,34.52,18.93c11.46,6.35,22.97,12.91,34.52,19.67l22.27,13.36v104.68c-3.8,2.31-7.55,4.54-11.26,6.68
	c-3.71,2.14-7.63,4.37-11.75,6.68c-11.22,6.27-22.48,12.7-33.78,19.3c-11.3,6.6-22.56,13.28-33.78,20.04
	c-15.34-8.91-30.56-17.69-45.66-26.36c-15.1-8.66-30.32-17.45-45.66-26.36V110.2c0-17.16,0.08-34.36,0.25-51.6
	c0.16-17.24,0.08-33.69-0.25-49.37V8.5C25.15,13.78,34.06,18.97,42.31,24.09z M106.9,91.64c-10.89,5.94-21.65,12.05-32.29,18.31
	c-10.64,6.27-21.41,12.54-32.29,18.81v73.5c10.89,6.27,21.65,12.46,32.29,18.56c10.64,6.1,21.16,12.29,31.55,18.56
	c10.89-5.94,21.65-12.05,32.29-18.31c10.64-6.27,21.41-12.54,32.29-18.81v-73.5c-10.89-6.27-21.53-12.45-31.92-18.56
	C128.43,104.1,117.79,97.92,106.9,91.64z"/>
<path class="st0" d="M403.12,112.43c-15.01,8.91-30.03,17.69-45.04,26.36c-15.01,8.66-30.19,17.45-45.53,26.36
	c-4.13-2.64-8.38-5.24-12.75-7.8c-4.37-2.56-8.78-5.15-13.24-7.8c10.39-6.27,20.91-12.45,31.55-18.56
	c10.64-6.1,21.16-12.29,31.55-18.56c-5.94-3.79-12-7.38-18.19-10.76c-6.19-3.38-12.25-6.72-18.19-10.02
	c-10.89,5.94-21.65,12.05-32.29,18.31c-10.64,6.27-21.41,12.54-32.29,18.81v73.5c10.89,6.27,21.65,12.46,32.29,18.56
	c10.64,6.1,21.16,12.29,31.55,18.56c10.89-6.27,21.53-12.46,31.92-18.56c10.39-6.1,21.04-12.29,31.92-18.56l26.73,15.59
	c-15.01,8.91-30.03,17.65-45.04,26.23c-15.01,8.58-30.19,17.16-45.53,25.74c-15.01-8.58-30.03-17.24-45.04-25.98
	c-15.01-8.75-30.19-17.41-45.53-25.98V113.17c12.7-7.42,25.74-14.97,39.1-22.64c13.36-7.67,26.56-15.22,39.6-22.64
	c1.81-1.15,3.67-2.35,5.57-3.59c1.89-1.24,3.75-2.27,5.57-3.09c1.15-0.33,2.35-0.12,3.59,0.62c1.24,0.74,2.76,1.53,4.58,2.35
	c13.86,8.25,27.84,16.38,41.95,24.38C376.02,96.56,389.75,104.51,403.12,112.43z"/>
<path class="st0" d="M606.29,112.43c-15.01,8.91-30.03,17.69-45.04,26.36c-15.01,8.66-30.19,17.45-45.53,26.36
	c-4.13-2.64-8.38-5.24-12.75-7.8c-4.37-2.56-8.78-5.15-13.24-7.8c10.39-6.27,20.91-12.45,31.55-18.56
	c10.64-6.1,21.16-12.29,31.55-18.56c-5.94-3.79-12-7.38-18.19-10.76c-6.19-3.38-12.25-6.72-18.19-10.02
	c-10.89,5.94-21.65,12.05-32.29,18.31c-10.64,6.27-21.41,12.54-32.29,18.81v73.5c10.89,6.27,21.65,12.46,32.29,18.56
	c10.64,6.1,21.16,12.29,31.55,18.56c10.89-6.27,21.53-12.46,31.92-18.56c10.39-6.1,21.04-12.29,31.92-18.56l26.73,15.59
	c-15.01,8.91-30.03,17.65-45.04,26.23c-15.01,8.58-30.19,17.16-45.53,25.74c-15.01-8.58-30.03-17.24-45.04-25.98
	c-15.01-8.75-30.19-17.41-45.53-25.98V113.17c12.7-7.42,25.74-14.97,39.1-22.64c13.36-7.67,26.56-15.22,39.6-22.64
	c1.81-1.15,3.67-2.35,5.57-3.59c1.89-1.24,3.75-2.27,5.57-3.09c1.15-0.33,2.35-0.12,3.59,0.62c1.24,0.74,2.76,1.53,4.58,2.35
	c13.86,8.25,27.84,16.38,41.95,24.38C579.19,96.56,592.92,104.51,606.29,112.43z"/>
<path class="st0" d="M718.14,63.68c15.34,8.58,30.56,17.28,45.66,26.11c15.09,8.83,30.31,17.69,45.66,26.6
	c-0.33,4.79-0.42,9.74-0.25,14.85c0.16,5.12,0.25,10.31,0.25,15.59c-18.65,11.22-37.33,22.07-56.05,32.54
	c-18.73,10.48-37.41,21.16-56.05,32.05c-2.64,1.82-5.24,3.43-7.79,4.83c-2.56,1.4-5.16,3.01-7.8,4.83c5.94,3.79,12,7.38,18.19,10.76
	c6.19,3.38,12.25,6.97,18.19,10.76c10.89-6.27,21.65-12.46,32.29-18.56c10.64-6.11,21.16-12.29,31.55-18.56
	c4.46,2.64,8.99,5.16,13.61,7.55c4.62,2.39,8.99,5.07,13.12,8.04c-15.34,8.58-30.44,17.24-45.29,25.98
	c-14.85,8.74-29.94,17.4-45.29,25.98c-15.01-8.58-29.99-17.24-44.92-25.98c-14.93-8.75-29.9-17.41-44.91-25.98
	c2.97-1.82,6.06-3.67,9.28-5.57c3.22-1.89,6.31-3.75,9.28-5.57c10.06-5.94,19.92-11.59,29.57-16.95
	c9.65-5.36,19.34-10.85,29.08-16.46c11.22-6.76,22.48-13.32,33.78-19.67c11.3-6.35,22.56-12.91,33.78-19.67
	c1.48-0.82,3.09-1.73,4.82-2.72c1.73-0.99,3.34-2.06,4.82-3.22c-11.22-5.94-22.07-12-32.54-18.19s-21.16-12.25-32.05-18.19
	c-10.39,5.94-20.91,12-31.55,18.19c-10.64,6.19-21.41,12.25-32.3,18.19c-4.13-2.64-8.37-5.2-12.74-7.67
	c-4.37-2.47-8.79-4.86-13.24-7.18c3.3-2.64,6.89-4.95,10.76-6.93c3.88-1.98,7.71-4.12,11.51-6.43
	c11.22-6.76,22.48-13.44,33.78-20.04C695.66,76.39,706.92,69.95,718.14,63.68z"/>
<path class="st0" d="M829.26,73.33c10.89,5.94,21.53,12,31.92,18.19c10.39,6.19,22.8,13.61,33.68,19.55l-27.12,14.6
	c-7.92-4.78-17.21-9.81-25.12-14.35c-7.92-4.54-15.84-9.03-23.76-13.49c-2.64-1.48-5.24-3.01-7.8-4.58
	c-2.56-1.57-5.15-3.26-7.79-5.07c4.45-2.31,8.87-4.7,13.24-7.18C820.88,78.53,825.13,75.97,829.26,73.33z M894.52,140.89
	c-4.46-1.81-10.2-4.83-14.41-7.55c-4.21-2.72-8.54-5.4-12.99-8.04c4.12-2.64,8.37-5.2,12.74-7.67c4.37-2.47,9.53-4.86,13.98-7.18
	c0.33,4.79,0.83,9.98,0.67,14.85C894.35,130.17,894.52,135.61,894.52,140.89z M893.84,110.45c4.46,2.31,8.82,4.79,13.12,7.42
	c4.29,2.64,8.82,5.12,13.61,7.42l-26.73,15.59V110.45z M920.57,156.48c-4.13,2.64-8.5,5.24-13.12,7.8
	c-4.62,2.56-9.16,5.16-13.61,7.8v-31.65c4.12-2.97,7.84-5.61,12.43-8.06c5.53-2.95,10.01-5.09,14.3-7.63V156.48z M920.57,235.92
	c-4.46,2.31-8.91,4.78-13.36,7.42c-4.45,2.64-8.91,5.11-13.36,7.42v-67.49v-12.62l26.73-15.26v2.57V235.92z M984.42,88.92
	c-10.89,5.94-21.53,11.92-31.92,17.94c-10.39,6.02-21.53,12.17-31.92,18.44c-4.79-2.64-9.46-3.77-13.74-6.33
	c-4.29-2.56-8.53-5.88-12.98-8.52c7.09-4.45,15.42-9.78,23.51-14.48c8.08-4.7,16.09-9.28,24-13.73c2.64-1.48,5.23-2.93,7.79-4.33
	c2.56-1.4,5.15-2.68,7.8-3.84c0.82-0.33,1.89-0.12,3.22,0.62c1.32,0.74,2.72,1.53,4.21,2.35c2.97,1.82,6.23,3.8,9.77,5.94
	C977.69,85.13,981.12,87.11,984.42,88.92z"/>
<g id="backbee" class="st1">
	<path class="st2" d="M915.58,809.02c-3.59,14.01-7.52,28.7-11.79,43.73h147.08c-4.27-14.69-8.03-29.55-11.62-43.73H915.58z"/>
	<path class="st2" d="M878.34,933.89h197.81c-5.3-15.03-10.59-30.75-15.55-46.98H893.88C888.93,902.97,883.81,918.86,878.34,933.89z
		"/>
	<path class="st2" d="M960.15,1143.24v43.58c0,9.44,7.65,17.08,17.08,17.08c9.43,0,17.08-7.64,17.08-17.08v-43.47
		c15.86-5.67,32.23-17.56,44.6-28.05c25.46-21.83,45.2-45.83,60.61-69.25H855.36C887.11,1093.78,928.87,1131.96,960.15,1143.24z"/>
	<path class="st2" d="M865.02,968.06c-7.52,17.77-15.2,32.29-22.89,43.9h270.41c-7.69-11.61-15.37-26.14-22.89-43.9H865.02z"/>
	<path class="st2" d="M1347.07,813.46c-31.03-31.03-125.54-68.86-200.8-95.58l59.67-36.02c5.55-3.35,8.72-9.54,8.2-16l-9.71-121.44
		l34.46-37.48c6.39-6.94,5.94-17.75-1.01-24.14c-6.95-6.39-17.76-5.94-24.13,1.02l-39.52,42.97c-3.22,3.5-4.84,8.17-4.46,12.93
		l9.47,118.36l-75.06,45.3c-1.07-0.36-2.2-0.74-3.25-1.09c-6.3-4.63-10.9-7.76-18.61-6.1c-45.24-14.88-25.57,32.58-26.47,34.51
		c13.97,60.52,52.92,233.29,96.8,277.17c6.58,6.58,13.67,11.94,20.89,16.71c2.62,53.56-8.1,108.24-30.78,154.84
		c-4.13,8.47-0.6,18.7,7.88,22.84c2.4,1.17,4.95,1.72,7.46,1.72c6.32,0,12.41-3.54,15.36-9.61c22.57-46.36,34.51-99.83,34.66-153.1
		c13.52,4.3,27.63,6.74,41.88,6.74c36.56,0,71.06-14.17,97.03-40.14c25.96-25.96,40.14-60.3,40.31-97.02
		C1387.39,874.1,1373.04,839.6,1347.07,813.46z"/>
	<path class="st2" d="M801.98,1007.86C846,963.24,897.56,750.4,902.66,712.02c1.25-9.66-4.16-12.84-5.03-14.55
		c-14.09-7.53-34.21-2.38-43.94,4.82c-1.05,0.35-2.17,0.73-3.23,1.08l-75.06-45.3l9.47-118.36c0.38-4.75-1.23-9.42-4.45-12.93
		l-39.53-42.97c-6.39-6.96-17.19-7.41-24.13-1.02c-6.95,6.39-7.4,17.2-1.01,24.14l34.47,37.48l-9.71,121.44
		c-0.52,6.46,2.65,12.64,8.2,16l59.67,36.02c-75.25,26.72-169.76,64.55-200.79,95.58c-25.96,26.14-40.32,60.64-40.32,97.37
		c0.17,36.72,14.35,71.06,40.32,97.02c25.96,25.97,60.47,40.14,97.03,40.14c14.26,0,28.37-2.44,41.82-6.71
		c0.06,53.29,12.02,106.77,34.74,153.12c2.97,6.06,9.04,9.56,15.36,9.56c2.52,0,5.08-0.55,7.5-1.75
		c8.47-4.14,11.98-14.38,7.82-22.85c-22.83-46.58-33.56-101.24-30.78-154.8C788.36,1019.74,795.45,1014.39,801.98,1007.86z"/>
	<path class="st2" d="M845.56,610.89c-5.77,12.11-8.94,25.22-8.94,38.92c0,11.9,2.46,23.57,7.23,34.74
		c34.54-8.79,58.66-19.65,83.01-1.09c25.11,18.83,10.13,45.39,2.3,72.52h96.23c-10.3-33.64-17.04-50.38-5.38-64.87
		c0-0.12,0.15-0.24,0.15-0.37c21.31-27.66,57.08-15.4,90.39-6.07c10.73-25.16,9.17-50.78-1.59-73.39
		C1022.98,631.75,931.47,631.62,845.56,610.89z"/>
	<g class="st3">
		<path class="st4" d="M1118.96,618.92c0.78-0.23,1.56-0.47,2.34-0.7c8.37-2.57,16.69-5.36,24.95-8.39l-24.03-23.93h-18.2h-2.4
			h-246.7h-0.41h-18.26l-23.94,23.93c8.25,3.03,16.56,5.82,24.92,8.38c0.2,0.06,0.4,0.12,0.61,0.18
			C929.53,646.39,1027.2,646.56,1118.96,618.92z"/>
		<path class="st4" d="M1088.88,567.56h27.56c-2.03-30.69-14.13-59.51-34.56-82.36c-1.72-1.93-3.49-3.81-5.33-5.65
			c-6.89-6.89-14.51-13-22.68-18.27c-9.01-5.81-18.67-10.58-28.77-14.19v56.66v7.43c0,4.63-3.48,8.47-7.95,9.08
			c-0.4,0.05-0.81,0.09-1.22,0.09c-5.04,0-9.17-4.13-9.17-9.17V447c0-15.13-12.38-27.5-27.51-27.5c-15.13,0-27.51,12.38-27.51,27.5
			v64.18c0,5.04-4.13,9.17-9.17,9.17c-1.15,0-2.25-0.22-3.27-0.62c-3.44-1.33-5.9-4.66-5.9-8.55v-3.7v-60.38
			c-10.58,3.71-20.5,8.63-29.61,14.58c-10.36,6.76-19.68,14.86-27.76,24.02c-19.66,22.27-31.99,50.84-34.06,81.86h27.72h0.24h216.76
			H1088.88z"/>
	</g>
	<path class="st5" d="M779.84,386.87c-10.19-0.13-18.56,8.02-18.7,18.21c-0.13,10.04,7.78,18.33,17.8,18.69l18.38,1.38
		c40.77,3.07,71.27,38.02,67.85,78.03l-2.4,26.03c11.9-9.28,25.01-16.83,39.1-22.62l0.03-0.37l0,0
		c5.18-60.45-41.32-113.36-101.81-117.91l-18.38-1.38c-0.62-0.08-1.25-0.13-1.87-0.14L779.84,386.87z"/>
	<path class="st5" d="M1157.12,382.27c-60.44,5.29-106.27,58.77-100.36,119.15l0,0l0.03,0.37c14.13,5.6,27.31,12.96,39.3,22.07
		l-2.65-26c-3.87-39.93,26.18-75.22,66.89-78.78l18.29-1.6c10.15-0.74,17.78-9.58,17.04-19.73s-9.58-17.78-19.73-17.04
		c-0.17,0.01-0.35,0.03-0.52,0.05L1157.12,382.27z"/>
</g>
</svg>
