<svg id="Camada_1" data-name="Camada 1" xmlns="http://www.w3.org/2000/svg" viewBox="0 0 23.74 23.83"><defs><style>.cls-1,.cls-2{fill:#c7653b;}.cls-2{fill-rule:evenodd;}</style></defs><title>bee</title><g id="backbee"><path class="cls-1" d="M14.75,12.48c-.1.41-.22.83-.34,1.27h4.25c-.12-.43-.23-.86-.33-1.27Z" transform="translate(-4.67 -0.09)"/><path class="cls-1" d="M13.67,16.1H19.4c-.16-.44-.31-.89-.45-1.36H14.12C14,15.2,13.83,15.66,13.67,16.1Z" transform="translate(-4.67 -0.09)"/><path class="cls-1" d="M16,22.16v1.26a.5.5,0,0,0,1,0V22.16a4.54,4.54,0,0,0,1.29-.81,9.17,9.17,0,0,0,1.75-2H13A7.44,7.44,0,0,0,16,22.16Z" transform="translate(-4.67 -0.09)"/><path class="cls-1" d="M13.29,17.09a7.77,7.77,0,0,1-.67,1.27h7.83a7.8,7.8,0,0,1-.66-1.27Z" transform="translate(-4.67 -0.09)"/><path class="cls-1" d="M27.24,12.61c-.9-.9-3.64-2-5.81-2.76l1.72-1a.47.47,0,0,0,.24-.46l-.28-3.51,1-1.09a.5.5,0,0,0-.73-.67L22.24,4.32a.46.46,0,0,0-.13.37l.27,3.42L20.21,9.43l-.1,0a.6.6,0,0,0-.53-.17c-1.31-.43-.74.94-.77,1,.4,1.75,1.53,6.75,2.8,8a3.9,3.9,0,0,0,.61.48,9.36,9.36,0,0,1-.9,4.48.51.51,0,0,0,.23.66.44.44,0,0,0,.22.05.49.49,0,0,0,.44-.27,10.32,10.32,0,0,0,1-4.44,3.84,3.84,0,0,0,1.21.2,4,4,0,0,0,4-4A4,4,0,0,0,27.24,12.61Z" transform="translate(-4.67 -0.09)"/><path class="cls-1" d="M11.46,18.24c1.28-1.29,2.77-7.45,2.92-8.56a.48.48,0,0,0-.15-.42A1.34,1.34,0,0,0,13,9.39l-.1,0L10.69,8.11,11,4.69a.5.5,0,0,0-.13-.37L9.69,3.07A.5.5,0,0,0,9,3a.49.49,0,0,0,0,.7l1,1.09L9.68,8.34a.49.49,0,0,0,.24.46l1.73,1c-2.18.77-4.92,1.86-5.81,2.76a4,4,0,0,0-1.17,2.82,4,4,0,0,0,4,4,4.08,4.08,0,0,0,1.21-.19,10.27,10.27,0,0,0,1,4.43.5.5,0,0,0,.44.27.42.42,0,0,0,.22-.05.49.49,0,0,0,.23-.66,9.24,9.24,0,0,1-.89-4.48A3.83,3.83,0,0,0,11.46,18.24Z" transform="translate(-4.67 -0.09)"/><path class="cls-1" d="M12.72,6.75a2.71,2.71,0,0,0-.26,1.13,2.67,2.67,0,0,0,.21,1c1-.25,1.7-.57,2.41,0s.29,1.31.06,2.1h2.79c-.3-1-.5-1.46-.16-1.88h0c.61-.8,1.65-.45,2.61-.18a2.53,2.53,0,0,0,0-2.12A16.53,16.53,0,0,1,12.72,6.75Z" transform="translate(-4.67 -0.09)"/><path class="cls-1" d="M20.64,7l.06,0c.25-.07.49-.15.73-.24L20.73,6H12.45l-.69.69.72.24h0A14,14,0,0,0,20.64,7Z" transform="translate(-4.67 -0.09)"/><path class="cls-1" d="M19.76,5.5h.8a4,4,0,0,0-1-2.39L19.41,3A4.08,4.08,0,0,0,17.92,2V3.86a.27.27,0,0,1-.23.27h0a.27.27,0,0,1-.26-.27V2a.8.8,0,0,0-.8-.8.79.79,0,0,0-.79.8V3.86a.27.27,0,0,1-.27.27l-.09,0a.27.27,0,0,1-.18-.25V2a4.2,4.2,0,0,0-.85.42,4.16,4.16,0,0,0-.81.7,4,4,0,0,0-1,2.37h7.14Z" transform="translate(-4.67 -0.09)"/><path class="cls-2" d="M10.82.27a.53.53,0,0,0-.54.52.53.53,0,0,0,.52.54l.53,0a2.1,2.1,0,0,1,2,2.26l-.07.76a4.92,4.92,0,0,1,1.13-.66h0A3.17,3.17,0,0,0,11.41.31l-.54,0h0Z" transform="translate(-4.67 -0.09)"/><path class="cls-2" d="M21.74.13a3.19,3.19,0,0,0-2.91,3.45h0A4.84,4.84,0,0,1,20,4.23l-.07-.75A2.09,2.09,0,0,1,21.83,1.2l.53-.05a.52.52,0,0,0,.49-.57.53.53,0,0,0-.57-.49h0Z" transform="translate(-4.67 -0.09)"/></g></svg>