<svg id="Camada_1" data-name="Camada 1" xmlns="http://www.w3.org/2000/svg" viewBox="0 0 242.62 66.25"><defs><style>.cls-1{fill:#c7653b;}</style></defs><title>logo</title><path class="cls-1" d="M11,25.28v18.4q4.22-2.24,8.15-4.55t7.84-4.56q4.33,2.35,8.64,4.74t8.65,4.93l5.58,3.34V73.8c-1,.58-1.9,1.14-2.82,1.67s-1.92,1.1-3,1.67Q39.82,79.49,35.58,82t-8.46,5c-3.84-2.24-7.65-4.43-11.43-6.61S8.1,76,4.26,73.79V46.84q0-6.45.06-12.92T4.26,21.55v-.18Q7.85,23.35,11,25.28ZM27.12,42.19Q23,44.43,19,46.78T11,51.49v18.4L19,74.54q4,2.29,7.9,4.65Q31,77,35,74.61t8.08-4.72V51.49q-4.09-2.35-8-4.65C32.52,45.31,29.85,43.77,27.12,42.19Z" transform="translate(-4.26 -21.37)"/><path class="cls-1" d="M101.31,47.4Q95.67,50.75,90,54L78.62,60.6c-1-.66-2.09-1.31-3.19-2s-2.2-1.29-3.31-2Q76,54.33,80,52.05t7.9-4.65Q85.69,46,83.36,44.7t-4.55-2.51q-4.09,2.23-8.09,4.59t-8.09,4.71V69.9l8.09,4.65q4,2.28,7.9,4.64,4.09-2.35,8-4.64t8-4.65l6.69,3.9Q95.66,77.15,90,80.37c-3.75,2.15-7.56,4.3-11.4,6.45Q73,83.6,67.34,80.31T55.94,73.8V47.58l9.79-5.67,9.92-5.67L77,35.35a11,11,0,0,1,1.4-.78,1.11,1.11,0,0,1,.9.16c.31.18.69.38,1.15.59q5.2,3.09,10.5,6.1T101.31,47.4Z" transform="translate(-4.26 -21.37)"/><path class="cls-1" d="M152.18,47.4c-3.75,2.23-7.52,4.43-11.27,6.6L129.5,60.6c-1-.66-2.09-1.31-3.19-2s-2.2-1.29-3.31-2q3.9-2.36,7.9-4.64t7.9-4.65q-2.24-1.42-4.56-2.7t-4.55-2.51q-4.09,2.23-8.09,4.59t-8.09,4.71V69.9l8.09,4.65q4,2.28,7.9,4.64,4.09-2.35,8-4.64t8-4.65l6.69,3.9q-5.64,3.35-11.28,6.57t-11.4,6.45q-5.64-3.22-11.28-6.51t-11.4-6.51V47.58l9.79-5.67,9.92-5.67,1.39-.89a11,11,0,0,1,1.4-.78,1.11,1.11,0,0,1,.9.16c.31.18.69.38,1.14.59q5.22,3.09,10.51,6.1T152.18,47.4Z" transform="translate(-4.26 -21.37)"/><path class="cls-1" d="M180.2,35.19q5.76,3.23,11.43,6.54l11.43,6.66q-.12,1.8-.06,3.72t.06,3.9q-7,4.22-14,8.15t-14,8c-.66.45-1.31.86-2,1.21a21.17,21.17,0,0,0-1.95,1.21q2.22,1.42,4.55,2.69T180.2,80l8.08-4.65q4-2.3,7.9-4.65c1.12.66,2.26,1.29,3.41,1.89a26.1,26.1,0,0,1,3.29,2q-5.76,3.21-11.34,6.5T180.2,87.62c-3.76-2.15-7.52-4.32-11.25-6.51s-7.49-4.36-11.25-6.5c.74-.46,1.52-.92,2.32-1.4s1.58-.94,2.33-1.39q3.78-2.23,7.4-4.25c2.42-1.34,4.85-2.72,7.28-4.12q4.22-2.54,8.46-4.93T194,53.6l1.21-.68a10.62,10.62,0,0,0,1.21-.81q-4.22-2.23-8.15-4.56t-8-4.55q-3.9,2.23-7.9,4.55t-8.09,4.56c-1-.66-2.09-1.3-3.19-1.92s-2.2-1.22-3.31-1.8a15.25,15.25,0,0,1,2.69-1.73q1.46-.75,2.88-1.62,4.22-2.53,8.46-5T180.2,35.19Z" transform="translate(-4.26 -21.37)"/><path class="cls-1" d="M208,37.61q4.09,2.22,8,4.55c2.6,1.55,5.71,3.41,8.43,4.9l-6.79,3.65c-2-1.19-4.31-2.45-6.29-3.59l-6-3.38c-.66-.37-1.31-.75-2-1.14s-1.29-.82-2-1.27c1.12-.58,2.23-1.18,3.32-1.8S207,38.27,208,37.61Zm16.35,16.92a24.38,24.38,0,0,1-3.61-1.89c-1.06-.69-2.14-1.36-3.26-2,1-.66,2.1-1.3,3.19-1.92s2.39-1.22,3.5-1.8a35.37,35.37,0,0,1,.17,3.72C224.32,51.84,224.37,53.2,224.37,54.53Zm-.18-7.63c1.12.58,2.21,1.2,3.29,1.86a38,38,0,0,0,3.41,1.86l-6.7,3.9Zm6.7,11.53c-1,.66-2.13,1.31-3.29,2s-2.29,1.3-3.41,2V54.41a28.72,28.72,0,0,1,3.12-2c1.38-.74,2.5-1.27,3.58-1.91Zm0,19.89c-1.12.58-2.23,1.2-3.35,1.86s-2.23,1.28-3.34,1.86V62l6.69-3.82V78.32Zm16-36.81q-4.09,2.24-8,4.49c-2.6,1.51-5.39,3-8,4.62-1.2-.66-2.37-.94-3.44-1.58s-2.14-1.48-3.25-2.14c1.78-1.11,3.86-2.45,5.89-3.62s4-2.33,6-3.44l2-1.09q1-.53,1.95-1a1,1,0,0,1,.81.16l1.05.59L244.31,40C245.19,40.56,246.05,41.06,246.88,41.51Z" transform="translate(-4.26 -21.37)"/></svg>